<svg width="24" height="24" viewBox="0 0 24 24" fill="none" xmlns="http://www.w3.org/2000/svg">
<path fill-rule="evenodd" clip-rule="evenodd" d="M3.13502 14.998C2.95402 14.693 2.95402 14.307 3.13502 14.002C5.04002 10.779 8.52002 8 12 8C15.48 8 18.959 10.779 20.864 14.001C21.045 14.307 21.045 14.694 20.864 15C18.959 18.221 15.48 21 12 21C8.52002 21 5.04002 18.221 3.13502 14.998Z" stroke="url(#paint0_linear_4519_2619)" stroke-width="1.5" stroke-linecap="round" stroke-linejoin="round"/>
<path d="M14.121 12.379C15.293 13.551 15.293 15.45 14.121 16.622C12.949 17.794 11.05 17.794 9.87802 16.622C8.70602 15.45 8.70602 13.551 9.87802 12.379C11.05 11.207 12.95 11.207 14.121 12.379" stroke="url(#paint1_linear_4519_2619)" stroke-width="1.4286" stroke-linecap="round" stroke-linejoin="round"/>
<path d="M12 2.5V5" stroke="url(#paint2_linear_4519_2619)" stroke-width="1.5" stroke-linecap="round" stroke-linejoin="round"/>
<path d="M5 4.5L6.68 6.5" stroke="url(#paint3_linear_4519_2619)" stroke-width="1.5" stroke-linecap="round" stroke-linejoin="round"/>
<path d="M19.0001 4.5L17.3201 6.5" stroke="url(#paint4_linear_4519_2619)" stroke-width="1.5" stroke-linecap="round" stroke-linejoin="round"/>
<defs>
<linearGradient id="paint0_linear_4519_2619" x1="2.99927" y1="21" x2="23.0265" y2="13.2118" gradientUnits="userSpaceOnUse">
<stop stop-color="#85FFC4"/>
<stop offset="0.458333" stop-color="#5CC6FF"/>
<stop offset="0.807292" stop-color="#BC85FF"/>
</linearGradient>
<linearGradient id="paint1_linear_4519_2619" x1="8.99902" y1="17.501" x2="16.1235" y2="15.5001" gradientUnits="userSpaceOnUse">
<stop stop-color="#85FFC4"/>
<stop offset="0.458333" stop-color="#5CC6FF"/>
<stop offset="0.807292" stop-color="#BC85FF"/>
</linearGradient>
<linearGradient id="paint2_linear_4519_2619" x1="11.5" y1="5" x2="12.7649" y2="4.8579" gradientUnits="userSpaceOnUse">
<stop stop-color="#85FFC4"/>
<stop offset="0.458333" stop-color="#5CC6FF"/>
<stop offset="0.807292" stop-color="#BC85FF"/>
</linearGradient>
<linearGradient id="paint3_linear_4519_2619" x1="5" y1="6.5" x2="7.03838" y2="6.01912" gradientUnits="userSpaceOnUse">
<stop stop-color="#85FFC4"/>
<stop offset="0.458333" stop-color="#5CC6FF"/>
<stop offset="0.807292" stop-color="#BC85FF"/>
</linearGradient>
<linearGradient id="paint4_linear_4519_2619" x1="17.3201" y1="6.5" x2="19.3585" y2="6.01912" gradientUnits="userSpaceOnUse">
<stop stop-color="#85FFC4"/>
<stop offset="0.458333" stop-color="#5CC6FF"/>
<stop offset="0.807292" stop-color="#BC85FF"/>
</linearGradient>
</defs>
</svg>
